<svg xmlns="http://www.w3.org/2000/svg" width="48.006" height="26.482" viewBox="0 0 48.006 26.482">
  <g id="noun_costume_1432852" transform="translate(-1.997 -12.759)">
    <path id="Path_2" data-name="Path 2" d="M49.48,21.681a1.008,1.008,0,0,0-1.09.09c-.01,0-.4.3-.99.65,1.03-2.43,1.83-6.15-.82-9.31a1,1,0,0,0-1.74.86c0,.03.69,3.51-4.32,5.61a12.162,12.162,0,0,1-3.81.86A12.11,12.11,0,0,0,26,27.993,12.113,12.113,0,0,0,15.29,20.441a12.161,12.161,0,0,1-3.81-.86c-4.94-2.07-4.34-5.48-4.32-5.61a1,1,0,0,0-1.74-.86c-2.65,3.16-1.85,6.88-.82,9.31-.59-.35-.98-.65-.99-.65a1.007,1.007,0,0,0-1.09-.09,1.021,1.021,0,0,0-.52.97l.02.17a14.472,14.472,0,0,0,10.95,13.07c-.02.61-.05,1.51-.09,2.31a1,1,0,0,0,.28.73.992.992,0,0,0,.72.31h7.63a5.162,5.162,0,0,0,4.37-2.05c.045-.062.079-.13.12-.193.041.064.075.131.12.193a5.175,5.175,0,0,0,4.39,2.05h7.63a1,1,0,0,0,1-1,.927.927,0,0,0-.03-.24c-.03-.75-.06-1.55-.08-2.11a14.46,14.46,0,0,0,10.95-13.07l.02-.17A1.021,1.021,0,0,0,49.48,21.681ZM21.56,33.261a8.182,8.182,0,0,1-2.18.3,7.054,7.054,0,0,1-7.08-6.59,1,1,0,0,1,.73-1.07,7.813,7.813,0,0,1,2.18-.31,7.049,7.049,0,0,1,7.08,6.6A1.006,1.006,0,0,1,21.56,33.261Zm11.06.3a8.183,8.183,0,0,1-2.18-.3,1.006,1.006,0,0,1-.73-1.07,7.049,7.049,0,0,1,7.08-6.6,7.813,7.813,0,0,1,2.18.31,1,1,0,0,1,.73,1.07A7.054,7.054,0,0,1,32.62,33.561Z"/>
  </g>
</svg>
