<svg xmlns="http://www.w3.org/2000/svg" width="60" height="59.979" viewBox="0 0 60 59.979">
  <g id="noun_Power_2014022" transform="translate(-2 -2.021)">
    <path id="Path_1" data-name="Path 1" d="M43,34h-.051A3.454,3.454,0,0,0,43,33.5v-5A3.5,3.5,0,0,0,39.5,25a3.458,3.458,0,0,0-1.514.359A3.487,3.487,0,0,0,32,23.055c-.01-.01-.016-.022-.026-.032a3.488,3.488,0,0,0-5.8,1.421A3.479,3.479,0,0,0,21,27.5v4.821a5.424,5.424,0,0,0-1,3.139v6.25a4.358,4.358,0,0,0,1.316,3.111L24,47.423V62h2V47a1,1,0,0,0-.3-.718l-2.987-2.9A2.345,2.345,0,0,1,22,41.71V35.46A3.464,3.464,0,0,1,25.46,32h3.88a1.735,1.735,0,0,1,1.257.545,1.4,1.4,0,0,1,.4,1c0,.029-.006.058-.008.087a1.517,1.517,0,0,1-.116.473c0,.011-.012.021-.017.032A1.467,1.467,0,0,1,29.5,35H26a1,1,0,0,0-1,1v2a1.029,1.029,0,0,0,.3.716A5.221,5.221,0,0,0,28.007,40.1,5.016,5.016,0,0,1,32,45h2a7.023,7.023,0,0,0-5.591-6.857,3.51,3.51,0,0,1-1.409-.6V37h2.5a3.559,3.559,0,0,0,.69-.067,3.459,3.459,0,0,0,1.254-.518c.032-.021.058-.051.089-.073a3.5,3.5,0,0,0,.444-.365h0c.01-.01.016-.021.026-.031a3.483,3.483,0,0,0,5,0,3.446,3.446,0,0,0,4,.707V42.84a3.388,3.388,0,0,1-2.318,3.212A1,1,0,0,0,38,47V62h2V47.667a5.384,5.384,0,0,0,3-4.827ZM23,30.592V27.5a1.5,1.5,0,0,1,3,0V30h-.54a5.419,5.419,0,0,0-2.46.592ZM29.34,30H28V25.5a1.5,1.5,0,0,1,3,0v4.91A3.711,3.711,0,0,0,29.34,30Zm5.16,5A1.5,1.5,0,0,1,33,33.5v-8a1.5,1.5,0,0,1,3,0v8A1.5,1.5,0,0,1,34.5,35Zm5,0A1.5,1.5,0,0,1,38,33.5v-5a1.5,1.5,0,0,1,3,0v5A1.5,1.5,0,0,1,39.5,35Z"/>
    <path id="Path_2" data-name="Path 2" d="M61.833,30.448A1,1,0,0,0,61,30H53.387l5.562-16.684a1,1,0,0,0-1.133-1.3L42.418,14.9,32.792,2.39a1.035,1.035,0,0,0-1.585,0L21.582,14.9l-15.4-2.887a1,1,0,0,0-1.147,1.25L9.685,30H3a1,1,0,0,0-.934,1.359l10,26,1.867-.718L4.456,32H11a1,1,0,0,0,.963-1.268L7.393,14.279l14.423,2.7a.994.994,0,0,0,.977-.373L32,4.64l9.208,11.97a1,1,0,0,0,.977.373L56.514,14.3,51.051,30.684A1,1,0,0,0,52,32h7.491L49.079,56.61l1.842.779,11-26a1,1,0,0,0-.087-.942Z"/>
    <path id="Path_3" data-name="Path 3" d="M53.828,34.439A1,1,0,0,0,53,34H47.36l4.594-14.7a1,1,0,0,0-1.133-1.282L40.44,19.9,32.809,9.412a1.037,1.037,0,0,0-1.617,0L23.561,19.9,13.179,18.016a1,1,0,0,0-1.149,1.227L15.719,34H10a1,1,0,0,0-.929,1.372l8,20,1.857-.743L11.477,36H17a1,1,0,0,0,.97-1.243l-3.624-14.5,9.475,1.723a1,1,0,0,0,.987-.4L32,11.7l7.191,9.888a1,1,0,0,0,.987.4l9.374-1.7L45.045,34.7A1,1,0,0,0,46,36h5.523L44.071,54.628l1.857.743,8-20A1,1,0,0,0,53.828,34.439Z"/>
    <rect id="Rectangle_1" data-name="Rectangle 1" width="2" height="2" transform="translate(2 60)"/>
    <rect id="Rectangle_2" data-name="Rectangle 2" width="2" height="2" transform="translate(16 60)"/>
    <rect id="Rectangle_3" data-name="Rectangle 3" width="2" height="2" transform="translate(60 60)"/>
    <rect id="Rectangle_4" data-name="Rectangle 4" width="2" height="2" transform="translate(54 58)"/>
    <rect id="Rectangle_5" data-name="Rectangle 5" width="2" height="2" transform="translate(8 58)"/>
    <rect id="Rectangle_6" data-name="Rectangle 6" width="2" height="2" transform="translate(43 59)"/>
  </g>
</svg>
