<svg xmlns="http://www.w3.org/2000/svg" width="95.959" height="68.151" viewBox="0 0 95.959 68.151">
  <g id="noun_profile_25426" transform="translate(-2 -16.244)">
    <path id="Path_1" data-name="Path 1" d="M62.916,30.89H95.545c3.2,0,3.227-4.954.037-4.954H62.952C59.755,25.936,59.726,30.89,62.916,30.89Z"/>
    <path id="Path_2" data-name="Path 2" d="M95.582,35H75.436c-3.2,0-3.225,4.954-.035,4.954H95.545C98.743,39.951,98.771,35,95.582,35Z"/>
    <path id="Path_3" data-name="Path 3" d="M83.859,58.074c3.2,0,3.225-4.954.035-4.954H62.952c-3.2,0-3.227,4.954-.036,4.954Z"/>
    <path id="Path_4" data-name="Path 4" d="M95.582,44.059H62.952c-3.2,0-3.227,4.953-.036,4.953H95.545C98.743,49.012,98.771,44.059,95.582,44.059Z"/>
    <path id="Path_5" data-name="Path 5" d="M95.582,62.182H62.952c-3.2,0-3.227,4.954-.036,4.954H95.545C98.743,67.136,98.771,62.182,95.582,62.182Z"/>
    <path id="Path_6" data-name="Path 6" d="M70.959,81.941c-3.2-1.428-6.324-3.04-9.4-4.726-5.014-2.751-9.7-5.883-13.273-10.478A7.954,7.954,0,0,1,46.852,59,121.347,121.347,0,0,1,51.5,46.282c2.738-6.3,4.5-8.225,2.372-17.871-3.015-13.682-21.238-16.073-30.5-5.911-3.19,3.5-3.272,5.407-3.625,8.667-.34,3.147,1.428,4.452.417,5.75-1.206,1.549-3.238,4.808-3.16,6.011.12,1.861,3.66,1.072,2.77,3.329-.749,1.9-.148,1.489.266,2.244.15.273-1.06.852-.583,1.542C21.5,53,19.126,54.079,20.5,55.63c1.8,2.038,5.733.257,6.672,1.038,1.17.974,1.583,4.958-.066,7.991-4.129,7.591-8.037,8.954-13.171,11.965C9.875,79,5.662,80.23,2.639,81.946l-.013.009a1.024,1.024,0,0,0-.135.1,1.182,1.182,0,0,0-.408,1.406,1.181,1.181,0,0,0,1.055.922c.03,0,.06.007.09.009s.043.007.066.007h67C71.525,84.395,72.213,82.5,70.959,81.941Z"/>
  </g>
</svg>
