<svg xmlns="http://www.w3.org/2000/svg" width="19.372" height="31.917" viewBox="0 0 19.372 31.917">
  <g id="noun_question_mark_135867" data-name="noun_question mark_135867" transform="translate(-3.214 -5.045)">
    <path id="Path_1" data-name="Path 1" d="M14.259,28.735c-1.468-.28-2.645.624-3.306-.158C8.74,25.958,8.168,23.243,10.4,20.7c2.1-2.388,7.108-4.137,9-7.247a7.152,7.152,0,0,0,.919-6.3C18.075,1.064,3.961,2.185,5.444,10.619c.212,1.2,1.226,3.305,3.305,3.466,2.173.168,4.116-1.581,3.306-3.624a2.4,2.4,0,0,0-2.02,0c.351-1.379,3.361-.8,3.674.158-.193,2.725-2.575,3.675-4.775,4.253C6.8,14.624,5.26,14.32,4.341,13.3.357,8.854,7.941,3.394,11.5,2.269c3.937.2,11.864.609,11.019,6.617a11.885,11.885,0,0,1-3.489,6.3c-2.245,2.139-8.058,3.992-8.448,7.72C10.328,25.376,12.925,27.252,14.259,28.735Z" transform="translate(0 2.776)" fill-rule="evenodd"/>
    <path id="Path_2" data-name="Path 2" d="M16.247,51.337c.892.939.207,2.111-.251,3.034-1.44.544-3.049,0-3.136-1.138C12.759,51.92,14.75,50.71,16.247,51.337Z" transform="translate(-0.957 -17.622)" fill-rule="evenodd"/>
  </g>
</svg>
