<svg xmlns="http://www.w3.org/2000/svg" width="29.815" height="56.053" viewBox="0 0 29.815 56.053">
  <g id="noun_question_mark_135867" data-name="noun_question mark_135867" transform="translate(-3.214 -2.269)">
    <path id="Path_1" data-name="Path 1" d="M20.214,46.756c-2.26-.47-4.071,1.049-5.088-.266-3.407-4.4-4.287-8.966-.848-13.24,3.23-4.014,10.94-6.954,13.85-12.181,1.654-2.968,2.733-6.683,1.414-10.592C26.087.244,4.363,2.127,6.646,16.3c.326,2.025,1.887,5.556,5.087,5.826,3.345.282,6.335-2.657,5.088-6.091-1.239-.663-1.857-.335-3.109,0,.54-2.318,5.173-1.338,5.654.265-.3,4.581-3.963,6.177-7.35,7.149-3.289-.417-5.653-.927-7.067-2.648C-1.184,13.337,10.49,4.16,15.973,2.269c6.06.329,18.26,1.023,16.96,11.122a20.511,20.511,0,0,1-5.37,10.592c-3.456,3.6-12.4,6.71-13,12.976C14.163,41.11,18.161,44.263,20.214,46.756Z" fill-rule="evenodd"/>
    <path id="Path_2" data-name="Path 2" d="M20.5,51.523c2.01,1.967.467,4.421-.565,6.354-3.244,1.139-6.87,0-7.067-2.383C12.637,52.745,17.122,50.21,20.5,51.523Z" fill-rule="evenodd"/>
  </g>
</svg>
