<svg xmlns="http://www.w3.org/2000/svg" width="100" height="49.873" viewBox="0 0 100 49.873">
  <g id="noun_Quote_77601" transform="translate(-25.9 -65.56)">
    <g id="Group_1" data-name="Group 1" transform="translate(105.9 65.599)">
      <path id="Path_1" data-name="Path 1" d="M144.2,105.571a1.089,1.089,0,0,1-.448-.064,1.3,1.3,0,0,1-.769-.769l-1.73-4.484a1.373,1.373,0,0,1,.448-1.537c6.15-4.164,8.968-8.007,9.1-12.683l-3.523,1.153a1.242,1.242,0,0,1-1.153-.192,1.337,1.337,0,0,1-.512-1.025V70.98a1.309,1.309,0,0,1,.9-1.217l13-4.1a1.242,1.242,0,0,1,1.153.192,1.338,1.338,0,0,1,.512,1.025V79.756c0,11.787-4.932,19.473-16.4,25.687A.952.952,0,0,1,144.2,105.571Zm-.192-5.253.833,2.114c9.737-5.637,13.772-12.3,13.772-22.74V68.61l-10.441,3.331v12.3l3.459-1.089a1.291,1.291,0,0,1,1.089.128,1.373,1.373,0,0,1,.577.961c.641,6.149-2.242,11.146-9.288,16.078Z" transform="translate(-141.178 -65.599)"/>
    </g>
    <g id="Group_2" data-name="Group 2" transform="translate(84.949 75.457)">
      <path id="Path_2" data-name="Path 2" d="M113.7,114.571a1.089,1.089,0,0,1-.448-.064,1.3,1.3,0,0,1-.769-.769l-1.73-4.484a1.373,1.373,0,0,1,.448-1.537c6.149-4.164,8.968-8.007,9.1-12.683l-3.523,1.153a1.242,1.242,0,0,1-1.153-.192,1.337,1.337,0,0,1-.512-1.025V79.98a1.309,1.309,0,0,1,.9-1.217l13-4.1a1.242,1.242,0,0,1,1.153.192,1.338,1.338,0,0,1,.512,1.025V88.756c0,11.787-4.932,19.473-16.4,25.687A1.871,1.871,0,0,1,113.7,114.571Zm-.192-5.253.833,2.114c9.737-5.637,13.772-12.3,13.772-22.74V77.61l-10.441,3.331v12.3l3.459-1.089a1.291,1.291,0,0,1,1.089.128,1.373,1.373,0,0,1,.577.961C123.375,99.39,120.493,104.386,113.511,109.319Z" transform="translate(-110.678 -74.599)"/>
    </g>
    <g id="Group_3" data-name="Group 3" transform="translate(46.851 65.56)">
      <path id="Path_3" data-name="Path 3" d="M57.677,105.175a1.115,1.115,0,0,1-.766-.255A1.333,1.333,0,0,1,56.4,103.9V91c0-11.813,4.917-19.412,16.411-25.286a1.156,1.156,0,0,1,1.022-.064,1.3,1.3,0,0,1,.766.766l1.724,4.534a1.3,1.3,0,0,1-.511,1.533c-6.13,3.959-8.876,7.663-9.067,12.452l3.7-1.086a1.238,1.238,0,0,1,1.149.192,1.333,1.333,0,0,1,.511,1.022v15.006a1.245,1.245,0,0,1-.894,1.213L58.06,105.111A.81.81,0,0,1,57.677,105.175ZM72.747,68.65C62.977,74.014,58.954,80.591,58.954,91v11.175l10.6-3.065V86.785l-3.64,1.086a1.116,1.116,0,0,1-1.086-.192,1.514,1.514,0,0,1-.575-.958c-.447-6.322,2.363-11.047,9.323-15.836Z" transform="translate(-56.4 -65.56)"/>
    </g>
    <g id="Group_4" data-name="Group 4" transform="translate(25.9 74.819)">
      <path id="Path_4" data-name="Path 4" d="M27.177,113.575a1.115,1.115,0,0,1-.766-.255A1.333,1.333,0,0,1,25.9,112.3V99.4c0-11.813,4.917-19.412,16.411-25.286a1.156,1.156,0,0,1,1.022-.064,1.3,1.3,0,0,1,.766.766l1.724,4.534a1.3,1.3,0,0,1-.511,1.533c-6.13,3.959-8.876,7.663-9.067,12.452l3.7-1.086a1.238,1.238,0,0,1,1.149.192,1.333,1.333,0,0,1,.511,1.022v15.006a1.245,1.245,0,0,1-.894,1.213L27.56,113.511A.81.81,0,0,1,27.177,113.575Zm15.07-36.461c-9.77,5.364-13.793,11.941-13.793,22.349v11.175l10.6-3.065V95.185l-3.64,1.086a1.116,1.116,0,0,1-1.086-.192,1.514,1.514,0,0,1-.575-.958c-.447-6.322,2.363-11.047,9.323-15.836Z" transform="translate(-25.9 -73.96)"/>
    </g>
  </g>
</svg>
