<svg xmlns="http://www.w3.org/2000/svg" width="88" height="88" viewBox="0 0 88 88">
  <g id="noun_suit_540778" transform="translate(-6 -6)">
    <g id="Group_1" data-name="Group 1" transform="translate(0 -952.362)">
      <path id="Path_1" data-name="Path 1" d="M35,6a2.148,2.148,0,0,0-1.625.813l-4.75,6.594L7.188,23.156A2.073,2.073,0,0,0,6,25a1.97,1.97,0,0,0,.094.563l20,66.969A2.087,2.087,0,0,0,28,94H72a2.087,2.087,0,0,0,1.906-1.469l20-66.969A1.971,1.971,0,0,0,94,25a2.072,2.072,0,0,0-1.187-1.844l-21.437-9.75-4.75-6.594A2.148,2.148,0,0,0,65,6a1.653,1.653,0,0,0-1.094.313L50,15.594,36.094,6.313A1.653,1.653,0,0,0,35,6Zm.5,4.719,11.469,7.656-5.062,5.688L32.625,14.75Zm29,0,2.875,4.031-9.281,9.313-5.062-5.687ZM25.844,19.063,18.188,35.125A2.073,2.073,0,0,0,19,37.719l5.25,3-3,5.25A2.042,2.042,0,0,0,21.281,48L46.469,90l-17-.031L10.406,26.094Zm48.313,0,15.438,7.031L70.531,89.969l-17,.031L78.719,48a2.042,2.042,0,0,0,.031-2.031l-3-5.25,5.25-3a2.073,2.073,0,0,0,.813-2.594Zm-44.719,1.75L44.531,78.938,25.313,46.969l3.406-6a2.078,2.078,0,0,0-.75-2.719l-5.375-3.094Zm41.125,0,6.844,14.344L72.031,38.25a2.078,2.078,0,0,0-.75,2.719l3.406,6L55.469,78.938ZM50,21l6.5,7.313a2.083,2.083,0,0,0,2.906.094l6.813-6.844L50,84.063l-16.219-62.5,6.813,6.844a2.082,2.082,0,0,0,2.906-.094Z" transform="translate(0 952.362)"/>
    </g>
  </g>
</svg>
