<svg xmlns="http://www.w3.org/2000/svg" width="90" height="70.147" viewBox="0 0 90 70.147">
  <g id="noun_Superhero_47480" transform="translate(-5 -14.926)">
    <g id="Group_7" data-name="Group 7">
      <g id="Group_6" data-name="Group 6">
        <g id="Group_5" data-name="Group 5">
          <path id="Path_5" data-name="Path 5" d="M25.5,36.6h0a7.77,7.77,0,0,1-1.441-.136A7.658,7.658,0,0,1,25.482,21.29a7.742,7.742,0,0,1,1.447.137A7.657,7.657,0,0,1,25.5,36.6Zm-.015-13.843a6.187,6.187,0,0,0-1.15,12.263,6.347,6.347,0,0,0,1.165.109,6.185,6.185,0,0,0,1.156-12.261A6.258,6.258,0,0,0,25.482,22.761Z"/>
          <path id="Path_6" data-name="Path 6" d="M66.352,85.073l-7.17-8.394L54.17,83.6,39.694,73.442a4.395,4.395,0,0,1-1.868-5.179l2.852-8.333-11.8-15.16-9.66-1.2a3.614,3.614,0,0,1-1.959-.917L5,30.391l3.677-4.08L21.351,36.5a29,29,0,0,0,6.13,1.092,2.751,2.751,0,0,0,1.089-.149,19.242,19.242,0,0,0,3.063-1.959,7.262,7.262,0,0,1,4.065-1.5l13.1.863a3.672,3.672,0,0,1,3.545,3.2l.943,14.8-1.339.172c1.411,1.908,6.861,9.195,9.868,13.214L73.034,79.364ZM48.135,60.748l7.981,10.067c.038.048.07.09.1.138L66.514,83l4.446-3.8L60.673,67.151c-.431-.572-9.853-13.159-10.257-13.74l-1.067-1.538,2.387-.307-.851-13.377a2.172,2.172,0,0,0-2.143-1.87l-13.083-.863a5.83,5.83,0,0,0-3.1,1.172,20.244,20.244,0,0,1-3.374,2.151,4.145,4.145,0,0,1-1.7.283A31.093,31.093,0,0,1,20.8,37.873l-.142-.041-11.822-9.5-1.812,2.01L18.278,41.6a2.117,2.117,0,0,0,1.136.52l10.252,1.271L42,59.237c.055.068.086.107.115.15l.2.3-3.1,9.048a2.94,2.94,0,0,0,1.273,3.469l13.337,9.36,3.437-4.747L45.54,68.328Zm-.853,7.027,11.262,8.156-3.582-4.205-6.308-7.957Zm1.611-16.546L41.419,40.51l5.314.177Zm-4.588-9.15,1.717,2.461-.5-2.42Z"/>
        </g>
        <path id="Path_7" data-name="Path 7" d="M93.077,36.636c-6.429-13.118-4.877-18.63-4.862-18.678l.978-3.032-2.208,2.3c-4.354,4.532-27.331,12.1-41.425,12.643-5.6.212-9.457,1.171-12.117,2.429a8.594,8.594,0,0,1-.773,1.438c.162-.072.325-.141.49-.2.013-.005.024-.011.037-.015a7.619,7.619,0,0,1,2.4-.5,33.21,33.21,0,0,1,10.025-1.678c13.192-.506,34.116-7.156,40.952-11.88-.078,2.718.565,8.4,5.188,17.829,4.368,8.913-.055,14.86-5.485,19.959-4.9,4.6-3.11,11.938-2.227,14.624a63.225,63.225,0,0,1-18.552-3.208l-.471-.2,1.854,2.188a63.648,63.648,0,0,0,17.546,2.7c.4,0,.643-.007.7-.009l1.063-.037-.41-.982c-.038-.09-3.707-9.1,1.5-14C92.839,53.092,97.877,46.433,93.077,36.636Z"/>
      </g>
    </g>
  </g>
</svg>
