<svg xmlns="http://www.w3.org/2000/svg" width="80" height="80" viewBox="0 0 80 80">
  <g id="noun_Taurus_2077955" transform="translate(-10 -10)">
    <path id="Path_1" data-name="Path 1" d="M28.529,60.459A21.471,21.471,0,1,0,50,38.989,21.5,21.5,0,0,0,28.529,60.459ZM50,40.989A19.471,19.471,0,1,1,30.529,60.459,19.493,19.493,0,0,1,50,40.989Z"/>
    <path id="Path_2" data-name="Path 2" d="M11,20.069c6.137,0,13.4,3.559,17.654,8.654h0A56.437,56.437,0,0,0,34.7,35.2a29.541,29.541,0,1,0,30.608,0,56.483,56.483,0,0,0,6.042-6.479c4.2-5.024,7.231-8.654,17.654-8.654a1,1,0,0,0,1-1V11a1,1,0,0,0-1-1c-15.13,0-20.576,6.517-25.381,12.266C59.421,27.29,56.388,30.92,50,30.92s-9.421-3.63-13.62-8.654C31.652,16.607,22.167,10,11,10a1,1,0,0,0-1,1v8.069A1,1,0,0,0,11,20.069Zm1-8.049C21.43,12.4,30.206,18,34.846,23.548c4.2,5.029,7.831,9.372,15.154,9.372s10.952-4.343,15.154-9.372C69.57,18.265,74.562,12.292,88,12.01v6.07c-10.575.249-14.112,4.482-18.188,9.36a47.3,47.3,0,0,1-6.871,7.125,1,1,0,0,0,.142,1.665,27.541,27.541,0,1,1-26.164,0,1,1,0,0,0,.142-1.665,47.3,47.3,0,0,1-6.871-7.125h0A26.877,26.877,0,0,0,12,18.1Z"/>
  </g>
</svg>
