<svg xmlns="http://www.w3.org/2000/svg" width="23.283" height="18.522" viewBox="0 0 23.283 18.522">
  <g id="noun_Ability_2534692" transform="translate(-1.058 -3.439)">
    <g id="Group_1" data-name="Group 1" transform="translate(0 -271.6)">
      <path id="Path_1" data-name="Path 1" d="M11.113,276.627a.529.529,0,0,0-.475.293L9.1,279.994a3.7,3.7,0,0,0-4.869,3.512,3.705,3.705,0,1,0,5.816-3.038l1.392-2.782H12.7v-1.059Zm-3.176,4.234a2.646,2.646,0,1,1-2.646,2.645A2.637,2.637,0,0,1,7.937,280.861Z"/>
      <path id="Path_2" data-name="Path 2" d="M3.969,287.74a2.916,2.916,0,0,0-2.91,2.91v2.381a.529.529,0,0,0,.529.529h12.7a.529.529,0,0,0,.529-.529V290.65a2.916,2.916,0,0,0-2.91-2.91Zm0,1.058h7.937a1.837,1.837,0,0,1,1.852,1.852V292.5H2.117V290.65A1.837,1.837,0,0,1,3.969,288.8Z"/>
      <path id="Path_3" data-name="Path 3" d="M14.287,275.039a.529.529,0,0,0-.529.529v3.176a.529.529,0,0,0,.529.529h3.176a.529.529,0,0,0,.529-.529v-3.176a.529.529,0,0,0-.529-.529Zm.529,1.059h2.117v2.117H14.816Z"/>
      <path id="Path_4" data-name="Path 4" d="M19.051,275.568v1.059h5.291v-1.059Z"/>
      <path id="Path_5" data-name="Path 5" d="M19.051,277.686v1.059h2.115v-1.059Z"/>
      <path id="Path_6" data-name="Path 6" d="M22.225,277.686v1.059h1.059v-1.059Z"/>
      <path id="Path_7" data-name="Path 7" d="M14.287,281.391a.529.529,0,0,0-.529.529v3.174a.529.529,0,0,0,.529.529h3.176a.529.529,0,0,0,.529-.529V281.92a.529.529,0,0,0-.529-.529Zm.529,1.059h2.117v2.115H14.816Z"/>
      <path id="Path_8" data-name="Path 8" d="M19.051,281.92v1.057h5.291V281.92Z"/>
      <path id="Path_9" data-name="Path 9" d="M19.051,284.035v1.059h2.115v-1.059Z"/>
      <path id="Path_10" data-name="Path 10" d="M22.225,284.035v1.059h1.059v-1.059Z"/>
    </g>
  </g>
</svg>
